<svg data-v-423bf9ae="" xmlns="http://www.w3.org/2000/svg" viewBox="0 0 503 110" class="iconLeft"><!----><!----><!----><g data-v-423bf9ae="" id="5d02573c-d9e7-4a0e-8c14-c0a08bf0beda" fill="black" transform="matrix(4.4182621750432,0,0,4.4182621750432,125.50060744216589,17.36002908793644)"><path d="M4.49 12.75L4.49 12.75Q3.65 12.75 2.98 12.50Q2.31 12.25 1.86 11.79L1.86 11.79L1.71 12.60L0.92 12.60L0.92 9.42L1.78 9.42Q1.86 10.77 2.44 11.38Q3.02 11.98 4.23 11.98L4.23 11.98Q6.23 11.98 6.23 10.46L6.23 10.46Q6.23 10.01 6.05 9.67Q5.88 9.34 5.56 9.06Q5.24 8.79 4.77 8.56Q4.30 8.33 3.71 8.09L3.71 8.09Q3.04 7.83 2.53 7.57Q2.02 7.31 1.67 6.98Q1.33 6.65 1.15 6.22Q0.97 5.80 0.97 5.18L0.97 5.18Q0.97 3.85 1.80 3.11Q2.63 2.37 4.03 2.37L4.03 2.37Q5.42 2.37 6.29 3.15L6.29 3.15L6.40 2.52L7.18 2.52L7.18 5.70L6.38 5.70Q6.38 4.34 5.89 3.73Q5.39 3.12 4.30 3.12L4.30 3.12Q2.38 3.12 2.38 4.87L2.38 4.87Q2.38 5.22 2.46 5.47Q2.55 5.71 2.78 5.92Q3.01 6.13 3.40 6.33Q3.79 6.52 4.41 6.79L4.41 6.79Q5.28 7.17 5.89 7.51Q6.51 7.85 6.90 8.23Q7.28 8.61 7.46 9.04Q7.64 9.48 7.64 10.02L7.64 10.02Q7.64 10.67 7.41 11.18Q7.18 11.69 6.77 12.04Q6.36 12.39 5.78 12.57Q5.19 12.75 4.49 12.75ZM8.92 10.96L8.92 10.96Q8.92 10.42 9.16 10.00Q9.41 9.58 9.94 9.25Q10.47 8.92 11.31 8.68Q12.15 8.44 13.33 8.26L13.33 8.26Q13.26 7.43 13.17 6.97Q13.08 6.51 12.92 6.23L12.92 6.23Q12.73 5.87 12.38 5.69Q12.03 5.52 11.62 5.52L11.62 5.52Q11.23 5.52 10.91 5.66Q10.60 5.80 10.49 6.03L10.49 6.03Q10.68 6.19 10.77 6.40Q10.86 6.62 10.86 6.82L10.86 6.82Q10.86 7.17 10.63 7.37Q10.40 7.57 10.07 7.57L10.07 7.57Q9.73 7.57 9.51 7.35Q9.30 7.13 9.30 6.72L9.30 6.72Q9.30 6.29 9.53 5.94Q9.77 5.60 10.16 5.37Q10.54 5.14 11.03 5.02Q11.51 4.90 11.98 4.90L11.98 4.90Q13.17 4.90 13.86 5.59L13.86 5.59Q14.73 6.45 14.73 8.67L14.73 8.67L14.73 10.70Q14.73 11.40 14.82 11.65Q14.91 11.91 15.22 11.91L15.22 11.91L15.85 11.91L15.85 12.33Q14.84 12.74 14.28 12.74L14.28 12.74Q14.07 12.74 13.93 12.67Q13.79 12.60 13.71 12.42Q13.62 12.25 13.59 11.96Q13.55 11.66 13.55 11.21L13.55 11.21L13.50 11.21Q13.06 11.93 12.35 12.33Q11.63 12.74 10.81 12.74L10.81 12.74Q9.93 12.74 9.42 12.27Q8.92 11.80 8.92 10.96ZM11.40 11.93L11.40 11.93Q11.79 11.93 12.22 11.72Q12.64 11.52 12.94 11.16L12.94 11.16Q13.37 10.63 13.37 9.59L13.37 9.59Q13.37 9.35 13.36 9.12Q13.34 8.89 13.31 8.68L13.31 8.68Q12.46 8.85 11.89 9.03Q11.33 9.21 10.98 9.44Q10.64 9.67 10.50 9.97Q10.36 10.28 10.36 10.67L10.36 10.67Q10.36 11.27 10.63 11.60Q10.91 11.93 11.40 11.93ZM22.18 11.76L22.18 8.64Q22.18 7.74 22.13 7.29Q22.08 6.83 21.95 6.58L21.95 6.58Q21.60 5.89 20.72 5.89L20.72 5.89Q20.33 5.89 19.96 6.03Q19.60 6.17 19.32 6.41L19.32 6.41Q19.01 6.69 18.86 7.06Q18.72 7.42 18.69 7.97L18.69 7.97L18.69 11.76L19.63 12.03L19.63 12.60L16.25 12.60L16.25 12.03L17.33 11.76L17.33 2.52L16.25 2.25L16.25 1.68L18.69 1.68L18.69 6.36Q19.11 5.68 19.80 5.29Q20.50 4.90 21.29 4.90L21.29 4.90Q21.85 4.90 22.30 5.10Q22.75 5.29 23.02 5.66L23.02 5.66Q23.30 6.05 23.41 6.75Q23.53 7.46 23.53 8.67L23.53 8.67L23.53 11.76L24.61 12.03L24.61 12.60L21.24 12.60L21.24 12.03L22.18 11.76ZM26.50 5.88L25.42 5.61L25.42 5.04L27.86 5.04L27.86 11.76L28.94 12.03L28.94 12.60L25.42 12.60L25.42 12.03L26.50 11.76L26.50 5.88ZM26.31 2.79L26.31 2.79Q26.31 2.38 26.54 2.14Q26.77 1.90 27.17 1.90L27.17 1.90Q27.58 1.90 27.82 2.14Q28.06 2.38 28.06 2.79L28.06 2.79Q28.06 3.19 27.82 3.42Q27.58 3.65 27.17 3.65L27.17 3.65Q26.77 3.65 26.54 3.42Q26.31 3.19 26.31 2.79ZM30.76 11.76L30.76 2.52L29.68 2.25L29.68 1.68L32.12 1.68L32.12 11.76L33.19 12.03L33.19 12.60L29.68 12.60L29.68 12.03L30.76 11.76ZM44.76 7.25L44.76 7.25Q44.51 7.45 44.17 7.59Q43.83 7.73 43.34 7.83L43.34 7.83Q43.60 8.08 43.90 8.58L43.90 8.58L45.77 11.73L47.01 12.00L47.01 12.60L44.13 12.60L44.13 12.00L42.11 8.08L40.40 8.08L40.40 11.70L41.73 12.00L41.73 12.60L37.83 12.60L37.83 12.00L39.00 11.70L39.00 3.42L37.83 3.12L37.83 2.52L42.64 2.52Q43.32 2.52 43.82 2.65Q44.32 2.77 44.73 3.05L44.73 3.05Q45.25 3.39 45.53 3.98Q45.82 4.56 45.82 5.15L45.82 5.15Q45.82 5.74 45.53 6.31Q45.25 6.87 44.76 7.25ZM40.40 7.27L42.41 7.27Q43.18 7.27 43.68 6.83L43.68 6.83Q43.96 6.58 44.12 6.15Q44.28 5.73 44.28 5.24L44.28 5.24Q44.28 4.75 44.12 4.35Q43.96 3.95 43.67 3.70L43.67 3.70Q43.43 3.50 43.11 3.42Q42.80 3.33 42.35 3.33L42.35 3.33L40.40 3.33L40.40 7.27ZM52.78 11.82L53.06 9.91L53.86 9.91L53.86 12.60L47.66 12.60L47.66 11.82L52.25 5.82L48.97 5.82L48.64 7.66L47.84 7.66L47.84 5.04L53.80 5.04L53.80 5.82L49.21 11.82L52.78 11.82ZM55.10 10.96L55.10 10.96Q55.10 10.42 55.35 10.00Q55.59 9.58 56.13 9.25Q56.66 8.92 57.50 8.68Q58.34 8.44 59.51 8.26L59.51 8.26Q59.44 7.43 59.35 6.97Q59.26 6.51 59.11 6.23L59.11 6.23Q58.91 5.87 58.56 5.69Q58.21 5.52 57.81 5.52L57.81 5.52Q57.41 5.52 57.10 5.66Q56.78 5.80 56.67 6.03L56.67 6.03Q56.87 6.19 56.96 6.40Q57.05 6.62 57.05 6.82L57.05 6.82Q57.05 7.17 56.82 7.37Q56.59 7.57 56.25 7.57L56.25 7.57Q55.92 7.57 55.70 7.35Q55.48 7.13 55.48 6.72L55.48 6.72Q55.48 6.29 55.72 5.94Q55.96 5.60 56.34 5.37Q56.73 5.14 57.21 5.02Q57.69 4.90 58.17 4.90L58.17 4.90Q59.36 4.90 60.05 5.59L60.05 5.59Q60.91 6.45 60.91 8.67L60.91 8.67L60.91 10.70Q60.91 11.40 61.01 11.65Q61.10 11.91 61.40 11.91L61.40 11.91L62.03 11.91L62.03 12.33Q61.03 12.74 60.47 12.74L60.47 12.74Q60.26 12.74 60.12 12.67Q59.98 12.60 59.89 12.42Q59.81 12.25 59.77 11.96Q59.74 11.66 59.74 11.21L59.74 11.21L59.68 11.21Q59.25 11.93 58.53 12.33Q57.82 12.74 56.99 12.74L56.99 12.74Q56.11 12.74 55.61 12.27Q55.10 11.80 55.10 10.96ZM57.58 11.93L57.58 11.93Q57.97 11.93 58.40 11.72Q58.83 11.52 59.12 11.16L59.12 11.16Q59.56 10.63 59.56 9.59L59.56 9.59Q59.56 9.35 59.54 9.12Q59.53 8.89 59.50 8.68L59.50 8.68Q58.65 8.85 58.08 9.03Q57.51 9.21 57.17 9.44Q56.83 9.67 56.69 9.97Q56.55 10.28 56.55 10.67L56.55 10.67Q56.55 11.27 56.82 11.60Q57.09 11.93 57.58 11.93ZM68.99 5.88L66.67 12.26Q66.37 13.08 66.13 13.65Q65.88 14.22 65.62 14.58Q65.35 14.94 65.02 15.10Q64.69 15.26 64.23 15.26L64.23 15.26Q63.90 15.26 63.61 15.17Q63.32 15.08 63.11 14.91Q62.89 14.74 62.76 14.52Q62.64 14.29 62.64 14.03L62.64 14.03Q62.64 13.64 62.86 13.38Q63.08 13.12 63.45 13.12L63.45 13.12Q63.77 13.12 63.96 13.29Q64.15 13.47 64.15 13.78L64.15 13.78Q64.15 13.97 64.07 14.15Q63.99 14.34 63.87 14.48L63.87 14.48Q63.90 14.63 64.03 14.67Q64.16 14.71 64.27 14.71L64.27 14.71Q64.41 14.71 64.55 14.67Q64.68 14.63 64.81 14.47Q64.95 14.31 65.09 14.01Q65.24 13.72 65.41 13.22L65.41 13.22L65.58 12.70L62.68 5.88L61.84 5.61L61.84 5.04L64.97 5.04L65.09 5.61L64.09 5.88L66.18 11.37L66.23 11.37L68.00 5.88L67.19 5.61L67.19 5.04L69.85 5.04L69.85 5.61L68.99 5.88ZM76.72 8.90L71.83 8.90Q71.83 9.93 72.11 10.60L72.11 10.60Q72.39 11.26 72.91 11.53Q73.42 11.80 74.03 11.80L74.03 11.80Q74.70 11.80 75.24 11.53Q75.78 11.26 76.22 10.78L76.22 10.78L76.66 11.12Q76.41 11.45 76.13 11.75Q75.84 12.04 75.47 12.26Q75.11 12.49 74.66 12.61Q74.21 12.74 73.67 12.74L73.67 12.74Q72.70 12.74 71.96 12.33Q71.22 11.91 70.83 11.12L70.83 11.12Q70.62 10.68 70.52 10.16Q70.42 9.63 70.42 9.02L70.42 9.02Q70.42 7.04 71.32 5.97Q72.21 4.90 73.78 4.90L73.78 4.90Q75.22 4.90 75.99 5.79Q76.76 6.68 76.76 8.25L76.76 8.25Q76.76 8.39 76.76 8.50Q76.75 8.62 76.72 8.90L76.72 8.90ZM73.70 5.66L73.70 5.66Q72.02 5.66 71.85 8.22L71.85 8.22L75.35 8.22L75.35 7.76Q75.35 6.75 74.92 6.20Q74.49 5.66 73.70 5.66ZM82.08 12.74L80.64 12.74L78.15 5.88L77.36 5.61L77.36 5.04L80.50 5.04L80.50 5.61L79.58 5.88L81.55 11.75L81.61 11.75L83.58 5.88L82.71 5.61L82.71 5.04L85.37 5.04L85.37 5.61L84.56 5.88L82.08 12.74Z"></path></g><!----><g data-v-423bf9ae="" id="47dca6ec-6a72-4b5e-8142-7914c6e4074a" transform="matrix(1.1033555772569446,0,0,1.1033555772569446,-3.1419726159423647,-0.9048750541897306)" stroke="none" fill="black"><path d="M81.263 1.182h-56.99c-15.275 0-20.797 5.312-20.797 21.18v57.192c0 15.373 5.522 20.93 20.796 20.93h56.991c15.403 0 21.515-5.557 21.515-20.93V22.362c0-15.868-5.912-21.18-21.515-21.18zM61.226 29.796h6.995L45.688 71.87h-8.092M70.12 36.538l.009-6.695 22.37 17.635c-.032 2.082.032 4.482 0 6.564L70.13 71.676l.018-6.755L88.508 50.79zM17.746 50.789l18.361 14.132.018 6.755-22.37-17.634c-.032-2.082.032-4.482 0-6.564l22.37-17.635.01 6.695z"></path></g><!----></svg>