<svg data-v-423bf9ae="" xmlns="http://www.w3.org/2000/svg" viewBox="0 0 491 110" class="iconLeft"><!----><!----><!----><g data-v-423bf9ae="" id="d7a9a050-51c8-40fa-ae51-a44235701128" fill="black" transform="matrix(3.7688439772745177,0,0,3.7688439772745177,125.60813056535736,-34.68964735646071)"><path d="M7.03 25.52Q7.03 25.09 6.68 24.71Q6.33 24.33 5.80 24.02Q5.28 23.70 4.38 23.24L4.38 23.24Q3.32 22.68 2.67 22.28Q2.03 21.88 1.57 21.34Q1.12 20.79 1.12 20.13L1.12 20.13Q1.12 19.43 1.71 18.63Q2.30 17.82 3.14 17.27Q3.99 16.72 4.70 16.72L4.70 16.72Q5.57 16.72 6.72 16.93Q7.87 17.14 8.40 17.37L8.40 17.37L8.40 20.09L7.87 20.09Q7.18 18.96 6.36 18.33Q5.54 17.70 4.65 17.70L4.65 17.70Q3.85 17.70 3.38 18.19Q2.91 18.69 2.91 19.49L2.91 19.49Q2.91 19.95 3.27 20.35Q3.63 20.75 4.15 21.06Q4.68 21.36 5.61 21.85L5.61 21.85Q6.65 22.37 7.29 22.77Q7.94 23.17 8.38 23.70Q8.82 24.22 8.82 24.88L8.82 24.88Q8.82 25.58 8.19 26.38Q7.56 27.19 6.66 27.74Q5.75 28.29 5.01 28.29L5.01 28.29Q4.10 28.29 2.85 28.08Q1.60 27.87 1.05 27.64L1.05 27.64L1.05 24.92L1.58 24.92Q2.30 26.05 3.21 26.68Q4.12 27.31 5.08 27.31L5.08 27.31Q5.66 27.31 6.10 27.06Q6.55 26.81 6.79 26.40Q7.03 25.98 7.03 25.52L7.03 25.52ZM18.14 27.44L17.86 28L15.20 28L15.20 26.78L13.62 28.03Q13.34 28.14 12.92 28.14L12.92 28.14Q11.72 28.14 11.18 27.54Q10.64 26.94 10.64 26.10L10.64 26.10Q10.64 25.59 11.00 25.10Q11.37 24.61 12.04 24.18L12.04 24.18L15.20 24.18L15.20 23.28Q15.20 22.37 14.72 21.99Q14.24 21.62 13.40 21.62L13.40 21.62Q12.53 21.62 11.27 22.67L11.27 22.67L10.85 22.13L12.87 20.54Q13.43 20.43 14.21 20.43L14.21 20.43Q15.48 20.43 16.18 21.05Q16.88 21.67 16.88 22.86L16.88 22.86L16.88 26.95L18.14 27.44ZM13.37 26.95Q14.22 26.95 15.20 26.17L15.20 26.17L15.20 24.75L12.73 24.75Q12.54 24.98 12.47 25.20Q12.39 25.42 12.39 25.69L12.39 25.69Q12.39 26.21 12.66 26.58Q12.92 26.95 13.37 26.95L13.37 26.95ZM27.93 27.44L27.65 28L24.99 28L24.99 23.28Q24.99 22.51 24.75 22.20Q24.51 21.90 23.90 21.90L23.90 21.90Q23.44 21.90 22.98 22.06Q22.53 22.23 21.91 22.71L21.91 22.71L21.91 26.95L23.17 27.44L22.89 28L18.98 28L18.98 27.57L20.23 26.59L20.23 17.98L18.98 17.11L18.98 16.67L21.38 15.78L21.91 15.78L21.91 22.05L23.83 20.54Q24.12 20.43 24.60 20.43L24.60 20.43Q25.55 20.43 26.11 21.01Q26.67 21.59 26.67 22.58L26.67 22.58L26.67 26.95L27.93 27.44ZM33.24 27.44L32.96 28L29.05 28L29.05 27.57L30.30 26.59L30.30 22.50L29.05 21.63L29.05 21.20L31.44 20.30L31.98 20.30L31.98 26.95L33.24 27.44ZM31.08 16.10Q31.50 16.10 31.77 16.41Q32.05 16.72 32.05 17.18L32.05 17.18Q32.05 17.50 31.85 17.79Q31.65 18.07 31.36 18.24Q31.07 18.41 30.79 18.41L30.79 18.41Q30.37 18.41 30.09 18.10Q29.82 17.79 29.82 17.33L29.82 17.33Q29.82 17.01 30.02 16.72Q30.21 16.44 30.51 16.27Q30.80 16.10 31.08 16.10L31.08 16.10ZM38.40 27.44L38.12 28L34.22 28L34.22 27.57L35.46 26.59L35.46 17.98L34.22 17.11L34.22 16.67L36.61 15.78L37.14 15.78L37.14 26.95L38.40 27.44ZM54.14 27.47L53.86 28.03L51.25 28.03L48.17 23.06L47.52 22.58L47.73 22.16L48.51 22.16Q49.46 22.16 50.01 21.68Q50.57 21.20 50.57 20.36L50.57 20.36Q50.57 19.25 49.95 18.52Q49.34 17.78 48.16 17.78L48.16 17.78Q47.38 17.78 46.72 18.24L46.72 18.24L46.72 26.96L48.19 27.47L47.91 28.03L43.65 28.03L43.65 27.59L44.97 26.56L44.97 18.05L43.51 17.57L43.79 17.01L45.42 17.01Q46.69 17.01 47.92 16.93L47.92 16.93Q48.82 16.87 49.25 16.87L49.25 16.87Q50.19 16.87 50.92 17.25Q51.66 17.63 52.06 18.27Q52.46 18.91 52.46 19.68L52.46 19.68Q52.46 20.38 52.02 21.02Q51.59 21.66 50.88 22.13Q50.18 22.60 49.39 22.83L49.39 22.83L50.30 23.14L52.47 26.64L54.14 27.47ZM57.02 26.32L60.49 26.32L61.10 25.17L61.52 25.31L61.52 28.25L60.75 28L55.10 28L55.10 27.47L59.81 22.25L56.27 22.25L55.71 23.25L55.29 23.11L55.29 20.31L56.06 20.57L61.70 20.57L61.70 21.10L57.02 26.32ZM71.02 27.44L70.74 28L68.08 28L68.08 26.78L66.50 28.03Q66.22 28.14 65.80 28.14L65.80 28.14Q64.60 28.14 64.06 27.54Q63.52 26.94 63.52 26.10L63.52 26.10Q63.52 25.59 63.88 25.10Q64.25 24.61 64.92 24.18L64.92 24.18L68.08 24.18L68.08 23.28Q68.08 22.37 67.60 21.99Q67.12 21.62 66.28 21.62L66.28 21.62Q65.41 21.62 64.15 22.67L64.15 22.67L63.73 22.13L65.74 20.54Q66.30 20.43 67.09 20.43L67.09 20.43Q68.36 20.43 69.06 21.05Q69.76 21.67 69.76 22.86L69.76 22.86L69.76 26.95L71.02 27.44ZM66.25 26.95Q67.10 26.95 68.08 26.17L68.08 26.17L68.08 24.75L65.60 24.75Q65.42 24.98 65.34 25.20Q65.27 25.42 65.27 25.69L65.27 25.69Q65.27 26.21 65.53 26.58Q65.80 26.95 66.25 26.95L66.25 26.95ZM79.53 20.57L79.53 21L75.99 28L73.08 31.70L72.55 31.28Q73.35 30.42 73.76 29.78Q74.17 29.13 74.34 28.48Q74.51 27.83 74.51 26.94L74.51 26.94L72.74 22.67L71.44 21.91L71.44 21.48L73.84 20.30L74.37 22.41L76.08 26.59L78.05 22.48L76.19 21.13L76.47 20.57L79.53 20.57ZM87.65 26.07L85.18 28.03Q84.62 28.14 83.83 28.14L83.83 28.14Q82.91 28.14 82.17 27.66Q81.44 27.17 81.02 26.35Q80.61 25.52 80.61 24.53L80.61 24.53Q80.61 23.45 81.27 22.50Q81.93 21.56 82.91 20.99Q83.90 20.43 84.83 20.43L84.83 20.43Q86.16 20.43 86.89 21.48Q87.63 22.53 87.63 24.25L87.63 24.25L82.45 24.25Q82.53 25.44 83.10 26.19Q83.66 26.95 84.64 26.95L84.64 26.95Q85.55 26.95 87.23 25.54L87.23 25.54L87.65 26.07ZM84.01 21.60Q82.50 21.60 82.43 23.67L82.43 23.67L85.71 23.67Q85.58 22.92 85.45 22.52Q85.32 22.12 84.99 21.86Q84.66 21.60 84.01 21.60L84.01 21.60ZM96.80 20.57L96.80 21L93.25 28L92.19 28L90.01 22.67L88.70 21.91L88.70 21.48L91.10 20.30L91.63 22.41L93.34 26.59L95.31 22.48L93.45 21.13L93.73 20.57L96.80 20.57Z"></path></g><!----><g data-v-423bf9ae="" id="d60b0ddf-5ff7-4044-aa00-f20484cc7c9b" transform="matrix(1.1033555772569446,0,0,1.1033555772569446,-3.1419726159423647,-0.9048750541897306)" stroke="none" fill="black"><path d="M81.263 1.182h-56.99c-15.275 0-20.797 5.312-20.797 21.18v57.192c0 15.373 5.522 20.93 20.796 20.93h56.991c15.403 0 21.515-5.557 21.515-20.93V22.362c0-15.868-5.912-21.18-21.515-21.18zM61.226 29.796h6.995L45.688 71.87h-8.092M70.12 36.538l.009-6.695 22.37 17.635c-.032 2.082.032 4.482 0 6.564L70.13 71.676l.018-6.755L88.508 50.79zM17.746 50.789l18.361 14.132.018 6.755-22.37-17.634c-.032-2.082.032-4.482 0-6.564l22.37-17.635.01 6.695z"></path></g><!----></svg>